{
    "asset" : {
        "generator" : "Khronos glTF Blender I/O v1.8.19",
        "version" : "2.0"
    },
    "scene" : 0,
    "scenes" : [
        {
            "name" : "Scene",
            "nodes" : [
                0
            ]
        }
    ],
    "nodes" : [
        {
            "mesh" : 0,
            "name" : "Cube",
            "scale" : [
                0.09999999403953552,
                0.5,
                0.09999999403953552
            ],
            "translation" : [
                0,
                0.5,
                1
            ]
        }
    ],
    "materials" : [
        {
            "doubleSided" : true,
            "name" : "Material",
            "pbrMetallicRoughness" : {
                "baseColorFactor" : [
                    0.06997791677713394,
                    0.015947911888360977,
                    0,
                    1
                ],
                "metallicFactor" : 0,
                "roughnessFactor" : 0.798963725566864
            }
        }
    ],
    "meshes" : [
        {
            "name" : "Cube",
            "primitives" : [
                {
                    "attributes" : {
                        "POSITION" : 0,
                        "NORMAL" : 1,
                        "TEXCOORD_0" : 2
                    },
                    "indices" : 3,
                    "material" : 0
                }
            ]
        }
    ],
    "accessors" : [
        {
            "bufferView" : 0,
            "componentType" : 5126,
            "count" : 201,
            "max" : [
                1,
                1,
                1
            ],
            "min" : [
                -1,
                -1,
                -21.000001907348633
            ],
            "type" : "VEC3"
        },
        {
            "bufferView" : 1,
            "componentType" : 5126,
            "count" : 201,
            "type" : "VEC3"
        },
        {
            "bufferView" : 2,
            "componentType" : 5126,
            "count" : 201,
            "type" : "VEC2"
        },
        {
            "bufferView" : 3,
            "componentType" : 5123,
            "count" : 432,
            "type" : "SCALAR"
        }
    ],
    "bufferViews" : [
        {
            "buffer" : 0,
            "byteLength" : 2412,
            "byteOffset" : 0
        },
        {
            "buffer" : 0,
            "byteLength" : 2412,
            "byteOffset" : 2412
        },
        {
            "buffer" : 0,
            "byteLength" : 1608,
            "byteOffset" : 4824
        },
        {
            "buffer" : 0,
            "byteLength" : 864,
            "byteOffset" : 6432
        }
    ],
    "buffers" : [
        {
            "byteLength" : 7296,
            "uri" : "data:application/octet-stream;base64,"
        }
    ]
}
