{
    "asset" : {
        "generator" : "Khronos glTF Blender I/O v1.8.19",
        "version" : "2.0"
    },
    "scene" : 0,
    "scenes" : [
        {
            "name" : "Harvested Wheat",
            "nodes" : [
                0
            ]
        }
    ],
    "nodes" : [
        {
            "mesh" : 0,
            "name" : "Harvested Wheat",
            "scale" : [
                0.022647976875305176,
                1,
                0.02104341983795166
            ],
            "translation" : [
                0,
                1,
                0
            ]
        }
    ],
    "materials" : [
        {
            "doubleSided" : true,
            "name" : "Material.003",
            "pbrMetallicRoughness" : {
                "baseColorFactor" : [
                    0.47396862506866455,
                    0.23490235209465027,
                    0.06489071249961853,
                    1
                ],
                "metallicFactor" : 0,
                "roughnessFactor" : 0.5
            }
        }
    ],
    "meshes" : [
        {
            "name" : "Cube.003",
            "primitives" : [
                {
                    "attributes" : {
                        "POSITION" : 0,
                        "NORMAL" : 1,
                        "TEXCOORD_0" : 2
                    },
                    "indices" : 3,
                    "material" : 0
                }
            ]
        }
    ],
    "accessors" : [
        {
            "bufferView" : 0,
            "componentType" : 5126,
            "count" : 7200,
            "max" : [
                58.03666687011719,
                -0.8998661637306213,
                56.04726791381836
            ],
            "min" : [
                -51.62706756591797,
                -1.0170056819915771,
                -67.69245147705078
            ],
            "type" : "VEC3"
        },
        {
            "bufferView" : 1,
            "componentType" : 5126,
            "count" : 7200,
            "type" : "VEC3"
        },
        {
            "bufferView" : 2,
            "componentType" : 5126,
            "count" : 7200,
            "type" : "VEC2"
        },
        {
            "bufferView" : 3,
            "componentType" : 5123,
            "count" : 10800,
            "type" : "SCALAR"
        }
    ],
    "bufferViews" : [
        {
            "buffer" : 0,
            "byteLength" : 86400,
            "byteOffset" : 0
        },
        {
            "buffer" : 0,
            "byteLength" : 86400,
            "byteOffset" : 86400
        },
        {
            "buffer" : 0,
            "byteLength" : 57600,
            "byteOffset" : 172800
        },
        {
            "buffer" : 0,
            "byteLength" : 21600,
            "byteOffset" : 230400
        }
    ],
    "buffers" : [
        {
            "byteLength" : 252000,
            "uri" : "harvested_wheat.bin"
        }
    ]
}
