{
    "asset" : {
        "generator" : "Khronos glTF Blender I/O v1.8.19",
        "version" : "2.0"
    },
    "scene" : 0,
    "scenes" : [
        {
            "name" : "Squashed Wheat",
            "nodes" : [
                0
            ]
        }
    ],
    "nodes" : [
        {
            "mesh" : 0,
            "name" : "Squashed Wheat",
            "scale" : [
                0.022647976875305176,
                1,
                0.02104341983795166
            ],
            "translation" : [
                0,
                1,
                0
            ]
        }
    ],
    "materials" : [
        {
            "doubleSided" : true,
            "name" : "Material.001",
            "pbrMetallicRoughness" : {
                "baseColorFactor" : [
                    0.8000000715255737,
                    0.3636096119880676,
                    0.053271107375621796,
                    1
                ],
                "metallicFactor" : 0,
                "roughnessFactor" : 0.5
            }
        }
    ],
    "meshes" : [
        {
            "name" : "Cube.001",
            "primitives" : [
                {
                    "attributes" : {
                        "POSITION" : 0,
                        "NORMAL" : 1,
                        "TEXCOORD_0" : 2
                    },
                    "indices" : 3,
                    "material" : 0
                }
            ]
        }
    ],
    "accessors" : [
        {
            "bufferView" : 0,
            "componentType" : 5126,
            "count" : 48288,
            "max" : [
                52.49873352050781,
                -0.7483169436454773,
                53.638980865478516
            ],
            "min" : [
                -52.65163040161133,
                -1.1513882875442505,
                -56.81296920776367
            ],
            "type" : "VEC3"
        },
        {
            "bufferView" : 1,
            "componentType" : 5126,
            "count" : 48288,
            "type" : "VEC3"
        },
        {
            "bufferView" : 2,
            "componentType" : 5126,
            "count" : 48288,
            "type" : "VEC2"
        },
        {
            "bufferView" : 3,
            "componentType" : 5123,
            "count" : 72432,
            "type" : "SCALAR"
        }
    ],
    "bufferViews" : [
        {
            "buffer" : 0,
            "byteLength" : 579456,
            "byteOffset" : 0
        },
        {
            "buffer" : 0,
            "byteLength" : 579456,
            "byteOffset" : 579456
        },
        {
            "buffer" : 0,
            "byteLength" : 386304,
            "byteOffset" : 1158912
        },
        {
            "buffer" : 0,
            "byteLength" : 144864,
            "byteOffset" : 1545216
        }
    ],
    "buffers" : [
        {
            "byteLength" : 1690080,
            "uri" : "squashed_wheat.bin"
        }
    ]
}
