{
    "asset" : {
        "generator" : "Khronos glTF Blender I/O v1.8.19",
        "version" : "2.0"
    },
    "scene" : 0,
    "scenes" : [
        {
            "name" : "Scene",
            "nodes" : [
                0
            ]
        }
    ],
    "nodes" : [
        {
            "mesh" : 0,
            "name" : "Cube.001",
            "scale" : [
                2,
                2,
                3.5
            ],
            "translation" : [
                0.23269206285476685,
                -0.5843377113342285,
                1.6267693042755127
            ]
        }
    ],
    "materials" : [
        {
            "doubleSided" : true,
            "name" : "Material.002",
            "pbrMetallicRoughness" : {
                "baseColorTexture" : {
                    "index" : 0
                },
                "metallicFactor" : 0,
                "roughnessFactor" : 0.4000000059604645
            }
        }
    ],
    "meshes" : [
        {
            "name" : "Cube.002",
            "primitives" : [
                {
                    "attributes" : {
                        "POSITION" : 0,
                        "NORMAL" : 1,
                        "TEXCOORD_0" : 2
                    },
                    "indices" : 3,
                    "material" : 0
                }
            ]
        }
    ],
    "textures" : [
        {
            "sampler" : 0,
            "source" : 0
        }
    ],
    "images" : [
        {
            "bufferView" : 4,
            "mimeType" : "image/png",
            "name" : "truck"
        }
    ],
    "accessors" : [
        {
            "bufferView" : 0,
            "componentType" : 5126,
            "count" : 2909,
            "max" : [
                0.9074715375900269,
                2.150606393814087,
                0.8706706166267395
            ],
            "min" : [
                -0.9074715375900269,
                0.3040984869003296,
                -1.7586402893066406
            ],
            "type" : "VEC3"
        },
        {
            "bufferView" : 1,
            "componentType" : 5126,
            "count" : 2909,
            "type" : "VEC3"
        },
        {
            "bufferView" : 2,
            "componentType" : 5126,
            "count" : 2909,
            "type" : "VEC2"
        },
        {
            "bufferView" : 3,
            "componentType" : 5123,
            "count" : 7848,
            "type" : "SCALAR"
        }
    ],
    "bufferViews" : [
        {
            "buffer" : 0,
            "byteLength" : 34908,
            "byteOffset" : 0
        },
        {
            "buffer" : 0,
            "byteLength" : 34908,
            "byteOffset" : 34908
        },
        {
            "buffer" : 0,
            "byteLength" : 23272,
            "byteOffset" : 69816
        },
        {
            "buffer" : 0,
            "byteLength" : 15696,
            "byteOffset" : 93088
        },
        {
            "buffer" : 0,
            "byteLength" : 22155,
            "byteOffset" : 108784
        }
    ],
    "samplers" : [
        {
            "magFilter" : 9729,
            "minFilter" : 9987
        }
    ],
    "buffers" : [
        {
            "byteLength" : 130940,
            "uri" : "data:application/octet-stream;base64,"
        }
    ]
}
