{
    "asset" : {
        "generator" : "Khronos glTF Blender I/O v1.8.19",
        "version" : "2.0"
    },
    "scene" : 0,
    "scenes" : [
        {
            "name" : "Wheat",
            "nodes" : [
                0,
                1,
                2,
                3
            ]
        }
    ],
    "nodes" : [
        {
            "mesh" : 0,
            "name" : "Wheat.018",
            "rotation" : [
                0,
                0.8162495493888855,
                0,
                0.5776994824409485
            ],
            "scale" : [
                0.05232885107398033,
                2,
                0.0516660176217556
            ],
            "translation" : [
                0.5183119773864746,
                2.0169873237609863,
                -0.4884837567806244
            ]
        },
        {
            "mesh" : 1,
            "name" : "Wheat.019",
            "rotation" : [
                0,
                0.368508517742157,
                0,
                0.9296243786811829
            ],
            "scale" : [
                0.05455425754189491,
                2,
                0.05045223608613014
            ],
            "translation" : [
                -0.4684043824672699,
                2.0169873237609863,
                -0.44813528656959534
            ]
        },
        {
            "mesh" : 2,
            "name" : "Wheat.020",
            "rotation" : [
                0,
                -0.18611213564872742,
                0,
                0.9825285077095032
            ],
            "scale" : [
                0.055560145527124405,
                2,
                0.04876333847641945
            ],
            "translation" : [
                -0.47713643312454224,
                2.0169873237609863,
                0.4798804819583893
            ]
        },
        {
            "mesh" : 3,
            "name" : "Wheat.021",
            "rotation" : [
                0,
                0.2446700632572174,
                0,
                0.9696063995361328
            ],
            "scale" : [
                0.05535127595067024,
                2,
                0.049289967864751816
            ],
            "translation" : [
                0.47465187311172485,
                2.0169873237609863,
                0.5282986760139465
            ]
        }
    ],
    "materials" : [
        {
            "doubleSided" : true,
            "name" : "Material",
            "pbrMetallicRoughness" : {
                "baseColorFactor" : [
                    0.8000000715255737,
                    0.631989598274231,
                    0.013567555695772171,
                    1
                ],
                "metallicFactor" : 0,
                "roughnessFactor" : 0.5
            }
        }
    ],
    "meshes" : [
        {
            "name" : "Cube.021",
            "primitives" : [
                {
                    "attributes" : {
                        "POSITION" : 0,
                        "NORMAL" : 1,
                        "TEXCOORD_0" : 2
                    },
                    "indices" : 3,
                    "material" : 0
                }
            ]
        },
        {
            "name" : "Cube.022",
            "primitives" : [
                {
                    "attributes" : {
                        "POSITION" : 4,
                        "NORMAL" : 5,
                        "TEXCOORD_0" : 6
                    },
                    "indices" : 3,
                    "material" : 0
                }
            ]
        },
        {
            "name" : "Cube.023",
            "primitives" : [
                {
                    "attributes" : {
                        "POSITION" : 7,
                        "NORMAL" : 8,
                        "TEXCOORD_0" : 9
                    },
                    "indices" : 10,
                    "material" : 0
                }
            ]
        },
        {
            "name" : "Cube.024",
            "primitives" : [
                {
                    "attributes" : {
                        "POSITION" : 11,
                        "NORMAL" : 12,
                        "TEXCOORD_0" : 13
                    },
                    "indices" : 3,
                    "material" : 0
                }
            ]
        }
    ],
    "accessors" : [
        {
            "bufferView" : 0,
            "componentType" : 5126,
            "count" : 2096,
            "max" : [
                5.062244415283203,
                0.48194533586502075,
                0.7519874572753906
            ],
            "min" : [
                -4.568840026855469,
                -0.9975177645683289,
                -3.985271453857422
            ],
            "type" : "VEC3"
        },
        {
            "bufferView" : 1,
            "componentType" : 5126,
            "count" : 2096,
            "type" : "VEC3"
        },
        {
            "bufferView" : 2,
            "componentType" : 5126,
            "count" : 2096,
            "type" : "VEC2"
        },
        {
            "bufferView" : 3,
            "componentType" : 5123,
            "count" : 3144,
            "type" : "SCALAR"
        },
        {
            "bufferView" : 4,
            "componentType" : 5126,
            "count" : 2096,
            "max" : [
                5.062244415283203,
                0.48194533586502075,
                0.7519874572753906
            ],
            "min" : [
                -4.568840026855469,
                -0.9975177645683289,
                -3.985271453857422
            ],
            "type" : "VEC3"
        },
        {
            "bufferView" : 5,
            "componentType" : 5126,
            "count" : 2096,
            "type" : "VEC3"
        },
        {
            "bufferView" : 6,
            "componentType" : 5126,
            "count" : 2096,
            "type" : "VEC2"
        },
        {
            "bufferView" : 7,
            "componentType" : 5126,
            "count" : 4804,
            "max" : [
                23.38178253173828,
                0.48194533586502075,
                7.722677230834961
            ],
            "min" : [
                -13.58005142211914,
                -0.9994156360626221,
                -34.07204818725586
            ],
            "type" : "VEC3"
        },
        {
            "bufferView" : 8,
            "componentType" : 5126,
            "count" : 4804,
            "type" : "VEC3"
        },
        {
            "bufferView" : 9,
            "componentType" : 5126,
            "count" : 4804,
            "type" : "VEC2"
        },
        {
            "bufferView" : 10,
            "componentType" : 5123,
            "count" : 7206,
            "type" : "SCALAR"
        },
        {
            "bufferView" : 11,
            "componentType" : 5126,
            "count" : 2096,
            "max" : [
                5.062244415283203,
                0.48194533586502075,
                0.7519874572753906
            ],
            "min" : [
                -4.568840026855469,
                -0.9975177645683289,
                -3.985271453857422
            ],
            "type" : "VEC3"
        },
        {
            "bufferView" : 12,
            "componentType" : 5126,
            "count" : 2096,
            "type" : "VEC3"
        },
        {
            "bufferView" : 13,
            "componentType" : 5126,
            "count" : 2096,
            "type" : "VEC2"
        }
    ],
    "bufferViews" : [
        {
            "buffer" : 0,
            "byteLength" : 25152,
            "byteOffset" : 0
        },
        {
            "buffer" : 0,
            "byteLength" : 25152,
            "byteOffset" : 25152
        },
        {
            "buffer" : 0,
            "byteLength" : 16768,
            "byteOffset" : 50304
        },
        {
            "buffer" : 0,
            "byteLength" : 6288,
            "byteOffset" : 67072
        },
        {
            "buffer" : 0,
            "byteLength" : 25152,
            "byteOffset" : 73360
        },
        {
            "buffer" : 0,
            "byteLength" : 25152,
            "byteOffset" : 98512
        },
        {
            "buffer" : 0,
            "byteLength" : 16768,
            "byteOffset" : 123664
        },
        {
            "buffer" : 0,
            "byteLength" : 57648,
            "byteOffset" : 140432
        },
        {
            "buffer" : 0,
            "byteLength" : 57648,
            "byteOffset" : 198080
        },
        {
            "buffer" : 0,
            "byteLength" : 38432,
            "byteOffset" : 255728
        },
        {
            "buffer" : 0,
            "byteLength" : 14412,
            "byteOffset" : 294160
        },
        {
            "buffer" : 0,
            "byteLength" : 25152,
            "byteOffset" : 308572
        },
        {
            "buffer" : 0,
            "byteLength" : 25152,
            "byteOffset" : 333724
        },
        {
            "buffer" : 0,
            "byteLength" : 16768,
            "byteOffset" : 358876
        }
    ],
    "buffers" : [
        {
            "byteLength" : 375644,
            "uri" : "data:application/octet-stream;base64,"
        }
    ]
}
